PathFileType	4	(X/Y/Z)	Patient4_TMGait_0pt8_01_left_23.trc.trc
DataRate	CameraRate	NumFrames	NumMarkers	Units	OrigDataRate	OrigDataStartFrame	OrigNumFrames
89.171974522293	89.171974522293	6	33	mm	89.171974522293	89	       141
Frame#	Time	Sacral			L.Shoulder			Chest			R.Shoulder			Neck			R.ASIS			L.ASIS			R.Thigh.Superior			R.Thigh.Lateral			R.Thigh.Inferior			R.Patella			L.Thigh.Superior			L.Thigh.Lateral			L.Thigh.Inferior			L.Patella			L.Shank.Superior			L.Shank.Lateral			L.Shank.Inferior			R.Shank.Superior			R.Shank.Lateral			R.Shank.Inferior			R.Heel			R.Midfoot.Superior			R.Midfoot.Lateral			R.Toe			L.Heel			L.Midfoot.Lateral			L.Midfoot.Superior			L.Toe			L.Elbow			L.Wrist			R.Elbow			R.Wrist			
		X1	Y1	Z1	X2	Y2	Z2	X3	Y3	Z3	X4	Y4	Z4	X5	Y5	Z5	X6	Y6	Z6	X7	Y7	Z7	X8	Y8	Z8	X9	Y9	Z9	X10	Y10	Z10	X11	Y11	Z11	X12	Y12	Z12	X13	Y13	Z13	X14	Y14	Z14	X15	Y15	Z15	X16	Y16	Z16	X17	Y17	Z17	X18	Y18	Z18	X19	Y19	Z19	X20	Y20	Z20	X21	Y21	Z21	X22	Y22	Z22	X23	Y23	Z23	X24	Y24	Z24	X25	Y25	Z25	X26	Y26	Z26	X27	Y27	Z27	X28	Y28	Z28	X29	Y29	Z29	X30	Y30	Z30	X31	Y31	Z31	X32	Y32	Z32	X33	Y33	Z33	

89	26.056857142857	909.523666668620	995.238816211877	503.556565826415	1077.923099333407	1428.809244966591	325.319852456397	1173.832502842620	1365.910072149188	493.395012909881	1074.905805694544	1434.343917705056	661.211413638684	1044.754560289453	1489.136689782174	479.631999116013	1134.107742751322	944.556310419634	633.100265617357	1129.198484464931	954.008353443007	358.179223230435	1197.052240575046	750.196064192838	607.454510785816	1122.644443610964	633.549339726675	660.393130057719	1209.113188180726	590.123326767553	584.604229048261	1218.314029613308	501.862056659209	589.896752468095	1170.237527509800	733.946683555004	380.120105040708	1085.658575700531	620.535214584893	307.845171655400	1172.327461074087	534.060177297588	364.949632990713	1160.875562049279	446.845367689002	359.108400516905	1083.799011236828	393.868447202772	352.024426853443	937.463828060421	373.501063001734	304.483236320279	905.572376816244	247.043470818676	357.427318064310	1198.155129112593	411.451881989247	594.042913838895	1133.220305728989	300.680224547085	649.032221398688	1187.233609290566	210.901351187934	587.810556679076	1067.113160014786	43.193516059612	548.846321331538	1236.851278347544	98.805108229376	591.303129645575	1147.976863330135	37.580828127812	626.820060129315	1356.122152635652	46.224924000233	622.664056490211	709.291532018042	219.547855393108	396.667034053274	754.660864430324	158.056147133559	319.311332502154	859.382904661456	144.479823565946	340.182357159272	912.388271962765	28.991998491091	318.849639821872	1163.748067903290	1096.863598511592	195.651980716024	1417.476107653298	1064.627762696104	224.753570374015	974.478092595695	1097.451264223613	762.814443306054	984.818535113535	840.183364282005	787.733742154748	
90	26.068071428571	909.117421488445	996.671617204409	507.057246494034	1076.484792948646	1429.451234082480	326.721640131007	1173.967388368360	1366.879301546920	494.049052440153	1076.676148167355	1435.657245947344	662.667510505146	1044.853871097235	1490.194299244746	481.138824455238	1134.383657760230	945.524115387768	634.925032719438	1127.848676014187	954.843592164426	360.274702564936	1194.689616770730	749.469456755548	610.073636527496	1118.309832547910	633.677168334923	662.180768322968	1204.331011030893	589.385875853473	586.469136963139	1212.179691230060	501.200612578448	591.265068701127	1174.555682217364	737.601945295910	382.217797161161	1093.997480071054	622.351395778746	309.308551018972	1183.268622341137	538.004256962389	366.529937191678	1173.636825657140	449.940143549111	360.574421479773	1095.763068258733	396.681530614567	353.250588684094	949.028976684305	379.553726024599	305.176832324612	914.455725843498	253.581291750019	357.862522481813	1191.560977562620	411.060734853901	595.192805356688	1125.881414438642	300.624668104552	649.823477432236	1179.252009581658	210.636784441579	588.301705516633	1058.204348517779	43.304460042879	548.942097708469	1228.131267651139	98.821721126180	591.704151915509	1139.020051938755	37.587819062953	626.883085171533	1347.236653523443	45.685795479863	622.868803546186	717.756111378537	232.248959579440	396.413160139055	761.339353641159	169.319292245601	318.912010459442	865.759019803033	151.362456335177	340.316782777020	913.786740489908	30.073630178570	318.273121150930	1157.622282609670	1094.715830896789	199.843188475069	1410.093186630795	1049.378384037961	227.179181571617	983.588791739335	1096.407478908552	766.508498314561	1008.252572118018	839.653215472586	791.192461862334	
91	26.079285714286	908.542008649625	997.994188763805	510.453983887756	1074.852844620635	1429.934941136605	328.033034711565	1173.980906790386	1367.663545046012	494.550669619196	1078.479973681186	1436.772680377308	664.064178427819	1044.911492080650	1491.148429070815	482.572300542549	1134.505011446996	946.343705572103	636.579147357117	1126.318749045459	955.632821424215	362.202473939794	1192.218342869669	748.797409533135	612.381651238973	1114.063818694056	633.826745490185	663.857174581970	1199.548948114943	588.692323139091	588.168627588727	1206.076340207246	500.580878614707	592.557951199899	1178.488552284629	741.478669398518	384.251793620759	1101.847828033628	624.615837329696	310.702298463978	1193.591597073185	542.451633701531	368.042717297302	1185.952031932298	453.630700068774	361.958954576927	1107.590834493109	399.908181376371	354.423895683739	960.635043822779	385.084173375233	305.876799218555	924.162338733167	259.471092540300	358.393664459570	1185.018500724085	410.691215464941	596.251669987219	1118.622262412127	300.603409041504	650.591099187386	1171.326975629381	210.394738792728	588.760552126950	1049.278633122863	43.463781456357	549.039322352863	1219.398615723221	98.782492254857	592.083667713366	1130.052129299613	37.604214713084	626.936486394228	1338.355132002392	45.057803013050	623.061865227271	727.255395288593	242.176320422682	396.433641236003	769.706532750975	178.653205920947	318.636740517596	873.820960228731	157.743627666400	340.451002691970	918.380341539848	31.982621727131	317.431854281999	1151.396734394002	1092.497624121922	203.911062533786	1401.679427856426	1033.219491531281	229.468093071398	993.087202811001	1095.303738217378	770.145428847778	1032.427943764864	839.900702159508	794.510011780104	
92	26.090500000000	907.812327410535	999.215006687882	513.727142282282	1073.069482481180	1430.306330858563	329.263380235209	1173.873700097560	1368.291354956302	494.924462369016	1080.285179560358	1437.738997223818	665.389570124397	1044.926636772615	1492.030377624534	483.927076602278	1134.472303257699	947.057780171889	638.092634658829	1124.656853387909	956.415792215398	363.951992336195	1189.672716091210	748.213261484348	614.357994839204	1109.945643575150	634.019677187291	665.419644418301	1194.808802018460	588.058734828584	589.694428327153	1200.061829379539	500.012928175362	593.765642127146	1182.008017316071	745.571457457960	386.235718758855	1109.185577036953	627.313278795872	311.998482624285	1203.267645234166	547.366085708731	369.420188275033	1197.764275201602	457.893676966866	363.153882366767	1119.240272346121	403.504206794390	355.447666373381	972.185879583177	389.959140604794	306.568300636522	934.723946451770	264.503232324095	358.953742855872	1178.561499611167	410.354133418130	597.226383758071	1111.451835232589	300.634447448939	651.332998187835	1163.468155629490	210.188145273064	589.195414545055	1040.342986625155	43.671446450846	549.142481911603	1210.651884314977	98.706557424772	592.439859391033	1121.083048932964	37.636943523086	626.985270689275	1329.476605912594	44.390128478679	623.249878500731	737.746700861356	248.997848177499	396.726617952305	779.743543592608	185.689207852977	318.481402750615	883.648713143390	163.300065653712	340.522622457731	926.395413065231	34.555822020115	316.301244993084	1145.084434105701	1090.252983012783	207.881263438998	1392.076776487826	1016.267687767888	231.607047095804	1003.027153258776	1094.201984391653	773.706377705642	1057.223266026550	841.061334286498	797.648237009100	
93	26.101714285714	906.946777186753	1000.345673823784	516.862039611549	1071.172758478796	1430.610357072318	330.423794672086	1173.645545921341	1368.797945312241	495.198304266409	1082.052556989782	1438.608862725439	666.633717704905	1044.894106858197	1492.867357228768	485.203531209262	1134.290053098243	947.703170977188	639.488477484743	1122.911156533698	957.233677690473	365.514254356697	1187.070023339094	747.728255830998	616.005512254754	1105.957241523298	634.264189824813	666.863819958379	1190.128070623121	587.489690035524	591.047327991981	1194.162834551144	499.498987968477	594.879040797925	1185.100071700467	749.865841544766	388.161810060658	1115.997991607536	630.406773385953	313.168568451154	1212.282582670850	552.694055228532	370.601197122624	1209.031602136206	462.690624366795	364.082012264399	1130.686726592704	407.408657880784	356.251168858355	983.622946764136	394.054933031455	307.229759488416	946.173688731366	268.503046807875	359.480691961767	1172.198723844759	410.054672427791	598.120850192581	1104.360934186019	300.727270828782	652.044599199898	1155.672351644863	210.025273490844	589.611428427216	1031.401992889811	43.924241397368	549.252535504998	1201.891025467445	98.614213092363	592.773476675368	1112.119783833845	37.689493663649	627.031971304885	1320.597969955598	43.726497665523	623.437306903029	749.232990328344	252.551762393358	397.262448932396	791.423754604272	190.195887961157	318.425772232779	895.279323272649	167.750192178264	340.482127914214	937.883151808317	37.521688312314	314.873084143677	1138.688681457956	1088.034722791087	211.781277008504	1381.120216097542	998.671285107777	233.586922372126	1013.428501422388	1093.183129208751	777.174833232547	1082.512420324759	843.267164839330	800.561228054435	
94	26.112928571429	905.966930241318	1001.400248908574	519.846786080193	1069.195824064388	1430.884768643480	331.525907414486	1173.297161417589	1369.218829917405	495.400612265008	1083.742332990021	1439.429268407161	667.790612239096	1044.806975550023	1493.679100135397	486.407312362081	1133.965016172070	948.306526093202	640.780210095213	1121.123752417772	958.123640012237	366.885545858508	1184.413685133717	747.337159707447	617.342757858797	1102.077587557372	634.558106095456	668.185838870324	1185.507066618050	586.980384840271	592.235005809194	1188.381843840323	499.034812999011	595.891826478072	1187.759932107605	754.335219018088	390.005520277949	1122.275518422986	633.838251687772	314.188712432917	1220.627420479860	558.364429821165	371.539757060651	1219.717641354719	467.965394442522	364.702644003638	1141.910085535729	411.548498942277	356.795563323143	994.916750754526	397.266768185645	307.837644410681	958.532583072541	271.345636659131	359.922104876507	1165.920657302486	409.792547790487	598.936758897903	1097.329884011543	300.883441369410	652.721540265821	1147.927544022072	209.908974817499	590.011400865035	1022.457472855259	44.216656359252	549.368375757422	1193.116640834730	98.523082548456	593.086873962649	1103.165906276452	37.761969850271	627.077799649080	1311.714897993927	43.101054417810	623.625999429743	761.753327336407	252.835350450554	397.985464660858	804.714907327654	192.080618324302	318.435163231554	908.703334507587	170.881686260753	340.295191418107	952.732951313544	40.559929995476	313.156963886434	1132.203708155633	1085.894322624646	215.634552148873	1368.649257770918	980.616077313063	235.403031348282	1024.272798259933	1092.333343595974	780.535304656127	1108.163671031703	846.638119959434	803.197023633984	
